<?xml version="1.0" encoding="utf-8"?>
<!-- Generator: Adobe Illustrator 16.0.0, SVG Export Plug-In . SVG Version: 6.00 Build 0)  -->
<!DOCTYPE svg PUBLIC "-//W3C//DTD SVG 1.1//EN" "http://www.w3.org/Graphics/SVG/1.1/DTD/svg11.dtd">
<svg version="1.1" id="Layer_1" xmlns="http://www.w3.org/2000/svg" xmlns:xlink="http://www.w3.org/1999/xlink" x="0px" y="0px" width="100px" height="100px" viewBox="0 0 100 100" enable-background="new 0 0 100 100" xml:space="preserve" fill="#7d7d7d">
<path d="M54.549,17.947c-12.314,0-22.332,10.02-22.332,22.334c0,11.854,20.262,39.548,21.125,40.721l0.805,1.096
	c0.094,0.129,0.244,0.204,0.402,0.204c0.16,0,0.309-0.075,0.404-0.204l0.805-1.096c0.863-1.173,21.125-28.867,21.125-40.721
	C76.883,27.967,66.863,17.947,54.549,17.947z M54.549,32.281c4.412,0,8,3.588,8,8c0,4.41-3.588,8-8,8c-4.41,0-8-3.59-8-8
	C46.549,35.869,50.139,32.281,54.549,32.281z"/>
</svg>
