<?xml version="1.0" ?><!DOCTYPE svg  PUBLIC '-//W3C//DTD SVG 1.1//EN'  'http://www.w3.org/Graphics/SVG/1.1/DTD/svg11.dtd'><svg style="enable-background:new 0 0 499.996 500.004;" version="1.1" viewBox="0 0 499.996 500.004" xml:space="preserve" xmlns="http://www.w3.org/2000/svg" xmlns:xlink="http://www.w3.org/1999/xlink"><g id="cash-money-wallet"><g><path d="M249.998,500.004C111.931,500.004,0,388.074,0,249.998C0,111.931,111.931,0,249.998,0    c138.072,0,249.998,111.931,249.998,249.998C499.996,388.074,388.069,500.004,249.998,500.004z" style="fill:#29B5DF;"/><g id="_x32_2"><g><path d="M370.339,243.288h-6.808v-29.687c-0.025-15.688-12.756-28.41-28.44-28.449h-176.99      c-15.688,0.039-28.414,12.761-28.444,28.449v133.443c0.03,15.688,12.756,28.423,28.444,28.444h176.99      c15.684-0.021,28.414-12.756,28.44-28.444v-28.889l-0.931-2.03h7.739V243.288z" style="fill:#4F5A69;"/><g><path d="M340.356,316.126h8.423v30.918c-0.008,7.487-6.209,13.675-13.688,13.688h-176.99       c-7.479-0.013-13.688-6.201-13.697-13.688V213.601c0.009-7.483,6.218-13.684,13.697-13.697h176.99       c7.479,0.013,13.679,6.214,13.688,13.697v29.687h-49.397c-20.111,0.013-36.41,16.303-36.419,36.427       c0.009,20.111,16.308,36.401,36.419,36.41h36.76" style="fill:#A8B6C0;"/><path d="M299.382,301.382h56.209v-43.346h-56.209c-11.966,0.03-21.641,9.705-21.671,21.679       C277.741,291.677,287.416,301.352,299.382,301.382z" style="fill:#FFFFFF;"/></g></g><path d="M157.05,270.605h-4.205V255.87h4.205V270.605z M157.05,276.925h-4.205v14.752h4.205V276.925z      M157.05,297.989h-4.205v14.765h4.205V297.989z M157.05,319.07h-4.205v14.743h4.205V319.07z M157.05,340.369v-0.239h-4.205v0.239     c0,6.128,4.415,11.218,10.226,12.393l0.838-4.132C160.003,347.848,157.033,344.403,157.05,340.369z M327.587,348.801h-10.312     v4.214h10.312c1.829,0,3.585-0.389,5.162-1.086l-1.693-3.859C329.989,348.531,328.818,348.801,327.587,348.801z M336.143,340.369     c0,1.637-0.47,3.154-1.291,4.436l3.556,2.269c1.218-1.94,1.949-4.252,1.949-6.705v-8.863h-4.213V340.369z M176.588,207.631     h-10.983c-1.556,0-3.039,0.282-4.419,0.786l1.448,3.957v-0.004c0.932-0.337,1.923-0.521,2.97-0.521h10.983V207.631z      M275.134,353.014h14.756v-4.214h-14.756V353.014z M157.05,234.789h-4.205v14.748h4.205V234.789z M296.207,353.014h14.743v-4.214     h-14.743V353.014z M157.05,220.28c0-1.829,0.594-3.5,1.598-4.889l-3.406-2.487c-1.504,2.068-2.41,4.632-2.398,7.376v8.192h4.205     V220.28z M303.006,207.631h-14.748v4.218h14.748V207.631z M260.861,207.631h-14.739v4.218h14.739V207.631z M254.071,353.014     h14.748v-4.214h-14.748V353.014z M281.942,207.631h-14.765v4.218h14.765V207.631z M336.143,242.254h4.213v-14.752h-4.213V242.254     z M330.916,208.067l-1.107,4.073h0.008c3.633,0.987,6.338,4.286,6.325,8.141v0.91h4.213v-0.91     C340.347,214.425,336.33,209.524,330.916,208.067z M324.066,207.631h-14.735v4.218h14.735V207.631z M190.861,353.014h14.748     v-4.214h-14.748V353.014z M218.724,207.631h-14.748v4.218h14.748V207.631z M169.793,353.014h14.748v-4.214h-14.748V353.014z      M197.657,207.631H182.9v4.218h14.756V207.631z M239.797,207.631h-14.756v4.218h14.756V207.631z M211.925,353.014h14.756v-4.214     h-14.756V353.014z M232.998,353.014h14.744v-4.214h-14.744V353.014z M340.356,316.126v9.064h-4.213v-9.064" style="fill:#FFFFFF;"/><path d="M301.98,266.844c-7.102,0-12.867,5.761-12.867,12.863c0,7.107,5.765,12.867,12.867,12.867     c7.103,0,12.876-5.761,12.876-12.867C314.856,272.605,309.083,266.844,301.98,266.844z" style="fill:#59616A;"/><path d="M291.117,130.11c-1.889-4.594-7.201-6.799-11.795-4.91l-119.157,49.115     c-1.517,0.628-2.739,1.65-3.675,2.872h154.037L291.117,130.11z" style="fill:#4F5A69;"/></g></g></g><g id="Layer_1"/></svg>